<svg xmlns="http://www.w3.org/2000/svg" xmlns:xlink="http://www.w3.org/1999/xlink" xml:space="preserve" width="9.32063in" height="1.69433in" style="shape-rendering:geometricPrecision; text-rendering:geometricPrecision; image-rendering:optimizeQuality; fill-rule:evenodd; clip-rule:evenodd" viewBox="0 0 9321 1694"> <defs>  <style type="text/css">   <![CDATA[    .fil1 {fill:#4B2D87;fill-rule:nonzero}    .fil2 {fill:url(#id0)}    .fil0 {fill:url(#id1);fill-rule:nonzero}   ]]>  </style>  <linearGradient id="id0" gradientUnits="userSpaceOnUse" x1="2328.06" y1="24.1339" x2="-58.7953" y2="1655.55">   <stop offset="0" style="stop-opacity:1; stop-color:#A478D1"></stop>   <stop offset="1" style="stop-opacity:1; stop-color:#4478D1"></stop>  </linearGradient>  <linearGradient id="id1" gradientUnits="userSpaceOnUse" xlink:href="#id0" x1="9093.41" y1="1189.15" x2="2946.73" y2="1682.31">  </linearGradient> </defs><symbol id="Fm0-24-0" viewBox="5605 -8431 5139 9028"> <image x="5605" y="-8433" width="5140" height="9030"></image></symbol><symbol id="Fm1-25-0" viewBox="10633 -8431 5153 9028"> <image x="10633" y="-8433" width="5154" height="9030"></image></symbol><symbol id="Fm2-26-0" viewBox="15660 -8431 5139 9028"> <image x="15660" y="-8433" width="5140" height="9030"></image></symbol> <g id="Layer_x0020_1">  <metadata id="CorelCorpID_0Corel-Layer"></metadata>  <g id="_662861120">   <path class="fil0" d="M3098 1574l56 -32c17,54 59,89 130,89 69,0 104,-32 104,-76 0,-50 -44,-67 -115,-89 -79,-25 -154,-50 -154,-140 0,-88 72,-139 154,-139 80,0 138,46 165,107l-55 32c-17,-42 -51,-76 -110,-76 -53,0 -89,28 -89,73 0,45 34,62 103,84 85,27 165,53 165,147 0,86 -69,140 -169,140 -93,0 -159,-47 -185,-120zm1135 -133c0,-108 -81,-191 -188,-191 -107,0 -188,83 -188,191 0,106 81,190 188,190 107,0 188,-84 188,-190zm-441 0c0,-141 111,-254 253,-254 142,0 253,113 253,254 0,140 -111,253 -253,253 -142,0 -253,-113 -253,-253zm1153 183l0 61 -276 0 0 -488 65 0 0 427 211 0zm344 -103l0 -324 65 0 0 321c0,68 40,113 118,113 79,0 119,-45 119,-113l0 -321 64 0 0 324c0,106 -76,173 -183,173 -106,0 -183,-67 -183,-173zm1071 -263l-144 0 0 427 -65 0 0 -427 -143 0 0 -61 352 0 0 61zm422 427l-65 0 0 -488 65 0 0 488zm813 -244c0,-108 -82,-191 -188,-191 -107,0 -189,83 -189,191 0,106 82,190 189,190 106,0 188,-84 188,-190zm-441 0c0,-141 111,-254 253,-254 141,0 253,113 253,254 0,140 -112,253 -253,253 -142,0 -253,-113 -253,-253zm1245 -244l0 488 -52 0 -251 -365 0 365 -65 0 0 -488 52 0 252 364 0 -364 64 0zm363 377l56 -32c18,54 59,89 131,89 69,0 103,-32 103,-76 0,-50 -43,-67 -115,-89 -78,-25 -154,-50 -154,-140 0,-88 72,-139 154,-139 80,0 138,46 165,107l-54 32c-18,-42 -52,-76 -111,-76 -53,0 -89,28 -89,73 0,45 34,62 103,84 85,27 165,53 165,147 0,86 -69,140 -169,140 -93,0 -159,-47 -185,-120z"></path>   <g>    <polygon class="fil1" points="3983,908 3779,908 3779,390 3549,768 3526,768 3296,390 3296,908 3093,908 3093,18 3296,18 3538,413 3779,18 3983,18 "></polygon>    <path class="fil1" d="M4633 577l-104 -327 -104 327 208 0zm61 191l-330 0 -45 140 -222 0 302 -890 260 0 302 890 -222 0 -45 -140z"></path>    <path class="fil1" d="M5012 706l175 -102c32,74 87,123 187,123 97,0 121,-38 121,-72 0,-55 -51,-77 -184,-113 -133,-37 -262,-101 -262,-271 0,-172 145,-271 299,-271 146,0 260,70 325,201l-172 100c-30,-63 -72,-103 -153,-103 -64,0 -96,32 -96,68 0,40 22,68 160,110 135,41 286,88 286,276 0,172 -137,273 -330,273 -187,0 -307,-89 -356,-219z"></path>    <polygon class="fil1" points="6404,214 6175,214 6175,908 5972,908 5972,214 5743,214 5743,18 6404,18 "></polygon>    <path class="fil1" d="M7446 437l152 0c56,0 102,-49 102,-114 0,-65 -46,-115 -102,-115l-152 0 0 229zm96 178l-96 0 0 293 -203 0 0 -890 355 0c169,0 305,136 305,305 0,109 -66,208 -163,258l189 327 -219 0 -168 -293z"></path>    <polygon class="fil1" points="8583,712 8583,908 8062,908 8062,18 8266,18 8266,712 "></polygon>    <polygon class="fil1" points="9022,566 9022,908 8819,908 8819,566 8520,18 8751,18 8920,361 9089,18 9321,18 "></polygon>    <polygon class="fil1" points="6529,214 7082,214 7082,16 6529,16 "></polygon>    <polygon class="fil1" points="6529,552 7082,552 7082,354 6529,354 "></polygon>    <polygon class="fil1" points="6529,890 7082,890 7082,692 6529,692 "></polygon>   </g>   <path class="fil2" d="M420 19l0 0c134,-1 253,62 331,159l-747 754 -4 -489c-2,-232 188,-423 420,-424zm1795 124l0 0c163,164 163,433 -2,597l-724 716 -261 -263 640 -641c17,-16 17,-44 0,-61l0 0c-17,-17 -44,-17 -61,0l-364 365 0 0 -17 16c-235,235 -470,466 -707,700 -165,164 -433,163 -597,-2l0 0c-163,-165 -163,-433 2,-597l724 -716 261 263 -562 562c-17,17 -17,45 0,62l0 0c17,17 44,17 61,0l286 -287 0 0 37 -36c228,-228 457,-453 687,-680 165,-164 433,-163 597,2zm-302 1551l0 0c-134,1 -253,-62 -331,-159l747 -762 4 497c2,232 -188,423 -420,424z"></path>  </g> </g></svg>