<svg width="225" height="162" viewBox="0 0 225 162" fill="none" xmlns="http://www.w3.org/2000/svg">
<path fill-rule="evenodd" clip-rule="evenodd" d="M40.3184 0.843007C53.1819 0.747011 64.6055 6.79477 72.0932 16.1064L0.384007 88.4875L2.18786e-05 41.5454C-0.19197 19.2743 18.0473 0.939004 40.3184 0.843007ZM212.632 12.7465C228.279 28.4899 228.279 54.3129 212.44 70.0563L142.938 138.79L117.883 113.543L179.321 52.009C180.953 50.473 180.953 47.7851 179.321 46.1532C177.689 44.5213 175.097 44.5213 173.465 46.1532L138.523 81.1918L136.891 82.7278C114.331 105.287 91.7724 127.462 69.0213 149.925C53.1819 165.668 27.4549 165.572 11.7116 149.733C-3.93582 133.894 -3.93582 108.167 11.9035 92.4234L81.4048 23.6901L106.46 48.9371L52.5099 102.887C50.878 104.519 50.878 107.207 52.5099 108.839C54.1419 110.471 56.7338 110.471 58.3657 108.839L85.8206 81.2878L89.3725 77.8319C111.26 55.9448 133.243 34.3457 155.322 12.5545C171.161 -3.18883 196.888 -3.09284 212.632 12.7465ZM183.641 161.637C170.777 161.733 159.354 155.685 151.866 146.373L223.575 73.2241L223.959 120.934C224.151 143.205 205.912 161.541 183.641 161.637Z" fill="url(#paint0_linear_3_17)"/>
<defs>
<linearGradient id="paint0_linear_3_17" x1="223.485" y1="1.33583" x2="-5.6441" y2="157.946" gradientUnits="userSpaceOnUse">
<stop stop-color="#A478D1"/>
<stop offset="1" stop-color="#4478D1"/>
</linearGradient>
</defs>
</svg>
